<svg width="13" height="22" viewBox="0 0 13 22" fill="none" xmlns="http://www.w3.org/2000/svg">
<g clip-path="url(#clip0_23_204)">
<path d="M12.9934 9.70296L12.6816 11.9402C12.6288 12.3139 12.2746 12.595 11.8544 12.595H7.79868V21.9487C7.37097 21.9832 6.9376 22.0008 6.49953 22.0008C5.51975 22.0008 4.56352 21.9133 3.63932 21.7467V12.595H0.520038C0.23364 12.595 0 12.3854 0 12.1287V9.32925C0 9.07254 0.23364 8.86296 0.520038 8.86296H3.63932V4.66463C3.63932 2.08822 5.96724 0 8.8397 0H12.479C12.7654 0 12.9991 0.20958 12.9991 0.466294V3.26574C12.9991 3.52246 12.7654 3.73204 12.479 3.73204H9.87883C8.73041 3.73204 7.79962 4.56699 7.79962 5.59806V8.8638H12.1672C12.6684 8.8638 13.0556 9.25771 12.9943 9.7038L12.9934 9.70296Z" fill="#C39757"/>
</g>
<defs>
<clipPath id="clip0_23_204">
<rect width="13" height="22" fill="white"/>
</clipPath>
</defs>
</svg>
