<svg width="22" height="22" viewBox="0 0 22 22" fill="none" xmlns="http://www.w3.org/2000/svg">
<g clip-path="url(#clip0_23_200)">
<path d="M16.6897 0H5.31027C2.37806 0 0 2.37806 0 5.31027V16.6897C0 19.6219 2.37806 22 5.31027 22H16.6897C19.6219 22 22 19.6219 22 16.6897V5.31027C22 2.37806 19.6219 0 16.6897 0ZM20.1032 16.3097C20.1032 18.4039 18.4039 20.1032 16.3097 20.1032H5.6892C3.59507 20.1032 1.8957 18.4039 1.8957 16.3097V5.6892C1.8957 3.59507 3.59507 1.8957 5.6892 1.8957H16.3097C18.4039 1.8957 20.1032 3.59507 20.1032 5.6892V16.3097Z" fill="#C39757"/>
<path d="M11.011 5.3103C7.87084 5.3103 5.32178 7.85936 5.32178 10.9995C5.32178 14.1396 7.87084 16.6887 11.011 16.6887C14.1511 16.6887 16.7002 14.1396 16.7002 10.9995C16.7002 7.85936 14.1511 5.3103 11.011 5.3103ZM11.011 14.793C8.92107 14.793 7.21747 13.0894 7.21747 10.9995C7.21747 8.90959 8.92107 7.206 11.011 7.206C13.1009 7.206 14.8045 8.90959 14.8045 10.9995C14.8045 13.0894 13.1009 14.793 11.011 14.793Z" fill="#C39757"/>
<path d="M17.0792 6.06914C16.4523 6.06914 15.9414 5.55827 15.9414 4.9313C15.9414 4.30432 16.4523 3.79346 17.0792 3.79346C17.7062 3.79346 18.2171 4.30432 18.2171 4.9313C18.2171 5.55827 17.7062 6.06914 17.0792 6.06914Z" fill="#C39757"/>
</g>
<defs>
<clipPath id="clip0_23_200">
<rect width="22" height="22" fill="white"/>
</clipPath>
</defs>
</svg>
