<svg width="50" height="99" viewBox="0 0 50 99" fill="none" xmlns="http://www.w3.org/2000/svg">
<g clip-path="url(#clip0_23_236)">
<path d="M19.133 42.9109V40.1196H18.4366C18.4366 40.1196 18.3313 40.8921 18.0153 41.1203C17.6349 41.3953 17.4008 41.5124 16.7162 41.5124H15.1947V13.4473C15.1947 13.2835 15.2357 12.7744 15.5049 12.3882C15.774 12.002 16.5757 11.8557 16.5757 11.8557V11.1651H10.4431V11.8557C10.4431 11.8557 11.2448 12.0078 11.514 12.3882C11.7831 12.7744 11.8241 13.2835 11.8241 13.4473V41.5124H5.25259V2.28218C5.25259 2.11834 5.29355 1.60923 5.56273 1.22302C5.83191 0.836801 6.6336 0.690507 6.6336 0.690507V0H0.489258V0.690507C0.489258 0.690507 1.29095 0.842653 1.56013 1.22302C1.82931 1.60923 1.87027 2.11834 1.87027 2.28218V41.7581C1.87027 41.7581 1.9522 42.829 1.48406 43.1743C1.01592 43.5195 0.489258 43.6014 0.489258 43.6014V44.3095H11.8183C11.8183 44.4148 11.9177 57.9207 12.2805 59.4187C12.6434 60.9168 13.5387 62.8479 17.2311 64.9252C20.9294 67.0026 25.1603 66.8153 25.1603 66.8153C25.1603 66.8153 29.3969 67.0026 33.0894 64.9252C36.7877 62.8479 37.6772 60.9168 38.04 59.4187C38.4028 57.9265 38.5023 44.4207 38.5023 44.3095H49.8313V43.6014C49.8313 43.6014 49.3046 43.5195 48.8365 43.1743C48.3683 42.829 48.4502 41.7581 48.4502 41.7581V2.28218C48.4502 2.11834 48.4854 1.60923 48.7604 1.22302C49.0296 0.836801 49.8313 0.690507 49.8313 0.690507V0H43.6986V0.690507C43.6986 0.690507 44.5003 0.842653 44.7695 1.22302C45.0387 1.60923 45.0796 2.11834 45.0796 2.28218V41.5065H38.5081V13.4473C38.5081 13.2835 38.5432 12.7744 38.8183 12.3882C39.0874 12.002 39.8891 11.8557 39.8891 11.8557V11.1651H33.7565V11.8557C33.7565 11.8557 34.5582 12.0078 34.8274 12.3882C35.0965 12.7744 35.1375 13.2835 35.1375 13.4473V41.5124H33.616C32.9314 41.5124 32.6973 41.3953 32.317 41.1203C31.9951 40.8921 31.8956 40.1196 31.8956 40.1196H31.1993V42.9109V45.7022H31.8956C31.8956 45.7022 32.001 44.9298 32.317 44.7016C32.6973 44.4265 32.9314 44.3095 33.616 44.3095H35.1375L35.0146 54.5501C35.0146 54.5501 34.9912 56.4694 34.921 57.5345C34.8508 58.5995 34.8625 59.6235 33.1947 60.9987C31.527 62.3739 28.6069 63.8602 25.172 63.8602C21.737 63.8602 18.817 62.3739 17.1492 60.9987C15.4815 59.6235 15.4932 58.5936 15.4229 57.5345C15.3527 56.4694 15.3235 54.5501 15.3235 54.5501L15.2006 44.3095H16.722C17.4067 44.3095 17.6408 44.4265 18.0211 44.7016C18.343 44.9298 18.4424 45.7022 18.4424 45.7022H19.1388V42.9109H19.133Z" fill="white"/>
<path d="M25.1601 4.93304H22.0938V5.62355C22.0938 5.62355 22.8954 5.7757 23.1646 6.15606C23.4338 6.54228 23.4748 7.05138 23.4748 7.21523V14.4129C23.4748 14.4129 23.4338 15.4018 24.3642 15.4018H25.9559C26.8863 15.4018 26.8454 14.4129 26.8454 14.4129V7.21523C26.8454 7.05138 26.8863 6.54228 27.1555 6.15606C27.4247 5.76985 28.2264 5.62355 28.2264 5.62355V4.93304H25.1601Z" fill="white"/>
<path d="M21.7723 97.5722V96.1443H21.4153C21.4153 96.1443 21.3626 96.5364 21.1988 96.6534C21.0057 96.7939 20.8828 96.8524 20.5317 96.8524H13.5505V79.0046C13.5505 78.9226 13.5681 78.6593 13.7085 78.4662C13.849 78.2672 14.2527 78.1912 14.2527 78.1912V77.8401H11.1162V78.1912C11.1162 78.1912 11.5258 78.2672 11.6604 78.4662C11.8009 78.6652 11.8184 78.9226 11.8184 79.0046V96.9811C11.8184 96.9811 11.8594 97.5254 11.6195 97.7068C11.3795 97.8823 11.1104 97.9233 11.1104 97.9233V98.2861H20.52C20.8711 98.2861 20.9881 98.3446 21.1871 98.4851C21.3509 98.6021 21.4036 98.9942 21.4036 98.9942H21.7605V97.5663L21.7723 97.5722Z" fill="white"/>
<path d="M38.4965 86.0676V79.0104C38.4965 78.9285 38.514 78.6652 38.6545 78.4721C38.7949 78.2731 39.1987 78.197 39.1987 78.197V77.8459H36.068V78.197C36.068 78.197 36.4776 78.2731 36.6122 78.4721C36.7526 78.671 36.7702 78.9285 36.7702 79.0104V87.5013L36.7058 92.7328C36.7058 92.7328 36.6941 93.7159 36.659 94.2601C36.6239 94.8043 36.6298 95.3251 35.7754 96.0332C34.921 96.7354 33.4288 97.4961 31.6792 97.4961C29.9295 97.4961 28.4314 96.7354 27.5829 96.0332C26.7286 95.331 26.7403 94.8043 26.6993 94.2601C26.6642 93.7159 26.6525 92.7328 26.6525 92.7328L26.5881 87.5013V79.0104C26.5881 78.9285 26.6057 78.6652 26.7461 78.4721C26.8866 78.2731 27.2903 78.197 27.2903 78.197V77.8459H24.1538V78.197C24.1538 78.197 24.5634 78.2731 24.698 78.4721C24.8385 78.671 24.856 78.9285 24.856 79.0104V87.5013C24.856 87.554 24.9087 94.4591 25.0901 95.2198C25.2773 95.9864 25.7338 96.9753 27.618 98.0345C29.5082 99.0936 31.6675 99 31.6675 99C31.6675 99 33.8326 99.0936 35.7169 98.0345C37.607 96.9753 38.0634 95.9864 38.2448 95.2198C38.4321 94.4591 38.4789 87.554 38.4789 87.5013V86.0676H38.4965Z" fill="white"/>
<path d="M31.6791 74.6567H30.1108V75.0078C30.1108 75.0078 30.5205 75.0839 30.6609 75.2828C30.8013 75.4818 30.8189 75.7393 30.8189 75.8212V79.502C30.8189 79.502 30.8013 80.0052 31.2753 80.0052H32.0887C32.5627 80.0052 32.5452 79.502 32.5452 79.502V75.8212C32.5452 75.7393 32.5627 75.4759 32.7032 75.2828C32.8436 75.0839 33.2532 75.0078 33.2532 75.0078V74.6567H31.685H31.6791Z" fill="white"/>
</g>
<defs>
<clipPath id="clip0_23_236">
<rect width="49.342" height="99" fill="white" transform="translate(0.489258)"/>
</clipPath>
</defs>
</svg>
