<svg width="50" height="99" viewBox="0 0 50 99" fill="none" xmlns="http://www.w3.org/2000/svg">
<g clip-path="url(#clip0_25_175)">
<path d="M19.1327 42.9109V40.1196H18.4363C18.4363 40.1196 18.331 40.8921 18.015 41.1203C17.6347 41.3953 17.4006 41.5124 16.7159 41.5124H15.1945V13.4473C15.1945 13.2835 15.2354 12.7744 15.5046 12.3882C15.7738 12.002 16.5755 11.8557 16.5755 11.8557V11.1651H10.4429V11.8557C10.4429 11.8557 11.2445 12.0078 11.5137 12.3882C11.7829 12.7744 11.8239 13.2835 11.8239 13.4473V41.5124H5.25234V2.28218C5.25234 2.11834 5.29331 1.60923 5.56249 1.22302C5.83167 0.836801 6.63336 0.690507 6.63336 0.690507V0H0.489014V0.690507C0.489014 0.690507 1.2907 0.842653 1.55989 1.22302C1.82907 1.60923 1.87003 2.11834 1.87003 2.28218V41.7581C1.87003 41.7581 1.95195 42.829 1.48381 43.1743C1.01567 43.5195 0.489014 43.6014 0.489014 43.6014V44.3095H11.818C11.818 44.4148 11.9175 57.9207 12.2803 59.4187C12.6431 60.9168 13.5384 62.8479 17.2309 64.9252C20.9292 67.0026 25.16 66.8153 25.16 66.8153C25.16 66.8153 29.3967 67.0026 33.0891 64.9252C36.7875 62.8479 37.6769 60.9168 38.0397 59.4187C38.4025 57.9265 38.502 44.4207 38.502 44.3095H49.831V43.6014C49.831 43.6014 49.3044 43.5195 48.8362 43.1743C48.3681 42.829 48.45 41.7581 48.45 41.7581V2.28218C48.45 2.11834 48.4851 1.60923 48.7601 1.22302C49.0293 0.836801 49.831 0.690507 49.831 0.690507V0H43.6984V0.690507C43.6984 0.690507 44.5001 0.842653 44.7692 1.22302C45.0384 1.60923 45.0794 2.11834 45.0794 2.28218V41.5065H38.5079V13.4473C38.5079 13.2835 38.543 12.7744 38.818 12.3882C39.0872 12.002 39.8889 11.8557 39.8889 11.8557V11.1651H33.7562V11.8557C33.7562 11.8557 34.5579 12.0078 34.8271 12.3882C35.0963 12.7744 35.1373 13.2835 35.1373 13.4473V41.5124H33.6158C32.9311 41.5124 32.6971 41.3953 32.3167 41.1203C31.9949 40.8921 31.8954 40.1196 31.8954 40.1196H31.199V42.9109V45.7022H31.8954C31.8954 45.7022 32.0007 44.9298 32.3167 44.7016C32.6971 44.4265 32.9311 44.3095 33.6158 44.3095H35.1373L35.0144 54.5501C35.0144 54.5501 34.991 56.4694 34.9207 57.5345C34.8505 58.5995 34.8622 59.6235 33.1945 60.9987C31.5267 62.3739 28.6067 63.8602 25.1717 63.8602C21.7367 63.8602 18.8167 62.3739 17.149 60.9987C15.4812 59.6235 15.4929 58.5936 15.4227 57.5345C15.3525 56.4694 15.3232 54.5501 15.3232 54.5501L15.2003 44.3095H16.7218C17.4064 44.3095 17.6405 44.4265 18.0209 44.7016C18.3427 44.9298 18.4422 45.7022 18.4422 45.7022H19.1386V42.9109H19.1327Z" fill="#C9A15B"/>
<path d="M25.1601 4.93304H22.0938V5.62355C22.0938 5.62355 22.8954 5.7757 23.1646 6.15606C23.4338 6.54228 23.4748 7.05138 23.4748 7.21523V14.4129C23.4748 14.4129 23.4338 15.4018 24.3642 15.4018H25.9559C26.8863 15.4018 26.8454 14.4129 26.8454 14.4129V7.21523C26.8454 7.05138 26.8863 6.54228 27.1555 6.15606C27.4247 5.76985 28.2264 5.62355 28.2264 5.62355V4.93304H25.1601Z" fill="#C9A15B"/>
<path d="M21.7718 97.5722V96.1443H21.4148C21.4148 96.1443 21.3621 96.5364 21.1983 96.6534C21.0052 96.7939 20.8823 96.8524 20.5312 96.8524H13.55V79.0046C13.55 78.9226 13.5676 78.6593 13.708 78.4662C13.8485 78.2672 14.2523 78.1912 14.2523 78.1912V77.8401H11.1157V78.1912C11.1157 78.1912 11.5253 78.2672 11.6599 78.4662C11.8004 78.6652 11.8179 78.9226 11.8179 79.0046V96.9811C11.8179 96.9811 11.8589 97.5254 11.619 97.7068C11.379 97.8823 11.1099 97.9233 11.1099 97.9233V98.2861H20.5195C20.8706 98.2861 20.9876 98.3446 21.1866 98.4851C21.3504 98.6021 21.4031 98.9942 21.4031 98.9942H21.7601V97.5663L21.7718 97.5722Z" fill="#C9A15B"/>
<path d="M38.4962 86.0676V79.0104C38.4962 78.9285 38.5138 78.6652 38.6542 78.4721C38.7947 78.2731 39.1984 78.197 39.1984 78.197V77.8459H36.0677V78.197C36.0677 78.197 36.4774 78.2731 36.612 78.4721C36.7524 78.671 36.77 78.9285 36.77 79.0104V87.5013L36.7056 92.7328C36.7056 92.7328 36.6939 93.7159 36.6588 94.2601C36.6237 94.8043 36.6295 95.3251 35.7752 96.0332C34.9208 96.7354 33.4286 97.4961 31.6789 97.4961C29.9292 97.4961 28.4312 96.7354 27.5827 96.0332C26.7283 95.331 26.74 94.8043 26.6991 94.2601C26.664 93.7159 26.6523 92.7328 26.6523 92.7328L26.5879 87.5013V79.0104C26.5879 78.9285 26.6055 78.6652 26.7459 78.4721C26.8863 78.2731 27.2901 78.197 27.2901 78.197V77.8459H24.1536V78.197C24.1536 78.197 24.5632 78.2731 24.6978 78.4721C24.8382 78.671 24.8558 78.9285 24.8558 79.0104V87.5013C24.8558 87.554 24.9084 94.4591 25.0898 95.2198C25.2771 95.9864 25.7335 96.9753 27.6178 98.0345C29.5079 99.0936 31.6672 99 31.6672 99C31.6672 99 33.8324 99.0936 35.7166 98.0345C37.6068 96.9753 38.0632 95.9864 38.2446 95.2198C38.4318 94.4591 38.4787 87.554 38.4787 87.5013V86.0676H38.4962Z" fill="#C9A15B"/>
<path d="M31.6789 74.6567H30.1106V75.0078C30.1106 75.0078 30.5202 75.0839 30.6607 75.2828C30.8011 75.4818 30.8187 75.7393 30.8187 75.8212V79.502C30.8187 79.502 30.8011 80.0052 31.2751 80.0052H32.0885C32.5625 80.0052 32.5449 79.502 32.5449 79.502V75.8212C32.5449 75.7393 32.5625 75.4759 32.7029 75.2828C32.8434 75.0839 33.253 75.0078 33.253 75.0078V74.6567H31.6847H31.6789Z" fill="#C9A15B"/>
</g>
<defs>
<clipPath id="clip0_25_175">
<rect width="49.342" height="99" fill="white" transform="translate(0.489014)"/>
</clipPath>
</defs>
</svg>
